# xmcd
#
# Track frame offsets: 
#        150
#        16487
#        33992
#        51302
#        71847
#        91120
#        108892
#        127667
#        149560
#        165220
#
# Disc length: 2440 seconds
#
# Revision: 2
# Processed by: cddbd v1.5.2PL0 Copyright (c) Steve Scherf et al.
# Submitted via: ExactAudioCopy v0.95a5
#
DISCID=7b09860a
DTITLE=Michael Lington - k-Stay With Me
DYEAR=2004
DGENRE=Fusion
TTITLE0=Show Me
TTITLE1=Don't Go (feat. Wendy Moten)
TTITLE2=A New Day
TTITLE3=Apasionada (feat. Michael Sembello)
TTITLE4=Pacifica
TTITLE5=Two Of A Kind (feat. Chuck Loeb)
TTITLE6=Call Me Late Tonight (feat. Paul Brown)
TTITLE7=Hey You (feat. Paul Jackson, Jr.)
TTITLE8=Stay With Me
TTITLE9=My Love
EXTD=YEAR: 2004
EXTT0=
EXTT1=
EXTT2=
EXTT3=
EXTT4=
EXTT5=
EXTT6=
EXTT7=
EXTT8=
EXTT9=
PLAYORDER=
